<?xml version="1.0" encoding="UTF-8" standalone="no"?>
<!DOCTYPE svg PUBLIC "-//W3C//DTD SVG 1.1//EN"
 "http://www.w3.org/Graphics/SVG/1.1/DTD/svg11.dtd">
<!-- Generated by graphviz version 2.47.0 (20210316.0004)
 -->
<!-- Title: dbml Pages: 1 -->
<svg width="1892pt" height="2484pt"
 viewBox="0.00 0.00 1891.61 2483.77" xmlns="http://www.w3.org/2000/svg" xmlns:xlink="http://www.w3.org/1999/xlink">
<g id="graph0" class="graph" transform="scale(1 1) rotate(0) translate(4 2479.77)">
<title>dbml</title>
<!-- Budget -->
<g id="Budget" class="node">
<title>Budget</title>
<ellipse fill="none" stroke="black" stroke-width="0" cx="966.55" cy="-1728.39" rx="304.11" ry="214.92"/>
<polygon fill="#1d71b8" stroke="transparent" points="753.55,-1818.39 753.55,-1878.39 1179.55,-1878.39 1179.55,-1818.39 753.55,-1818.39"/>
<polygon fill="none" stroke="#29235c" points="753.55,-1818.39 753.55,-1878.39 1179.55,-1878.39 1179.55,-1818.39 753.55,-1818.39"/>
<text text-anchor="start" x="853.61" y="-1839.59" font-family="Helvetica,sans-Serif" font-weight="bold" font-size="32.00" fill="#ffffff"> &#160;&#160;&#160;&#160;&#160;&#160;Budget &#160;&#160;&#160;&#160;&#160;&#160;</text>
<polygon fill="#e7e2dd" stroke="transparent" points="753.55,-1758.39 753.55,-1818.39 1179.55,-1818.39 1179.55,-1758.39 753.55,-1758.39"/>
<polygon fill="none" stroke="#29235c" points="753.55,-1758.39 753.55,-1818.39 1179.55,-1818.39 1179.55,-1758.39 753.55,-1758.39"/>
<text text-anchor="start" x="764.55" y="-1779.59" font-family="Helvetica,sans-Serif" font-weight="bold" font-size="32.00" fill="#29235c">id</text>
<text text-anchor="start" x="789.44" y="-1779.59" font-family="Helvetica,sans-Serif" font-size="32.00" fill="#29235c"> &#160;&#160;&#160;</text>
<text text-anchor="start" x="1026.33" y="-1779.59" font-family="Helvetica,sans-Serif" font-style="italic" font-size="32.00" fill="#29235c">INTEGER</text>
<polygon fill="#e7e2dd" stroke="transparent" points="753.55,-1698.39 753.55,-1758.39 1179.55,-1758.39 1179.55,-1698.39 753.55,-1698.39"/>
<polygon fill="none" stroke="#29235c" points="753.55,-1698.39 753.55,-1758.39 1179.55,-1758.39 1179.55,-1698.39 753.55,-1698.39"/>
<text text-anchor="start" x="764.55" y="-1718.59" font-family="Helvetica,sans-Serif" font-size="32.00" fill="#29235c">project_id &#160;&#160;&#160;</text>
<text text-anchor="start" x="1026.33" y="-1719.59" font-family="Helvetica,sans-Serif" font-style="italic" font-size="32.00" fill="#29235c">INTEGER</text>
<polygon fill="#e7e2dd" stroke="transparent" points="753.55,-1638.39 753.55,-1698.39 1179.55,-1698.39 1179.55,-1638.39 753.55,-1638.39"/>
<polygon fill="none" stroke="#29235c" points="753.55,-1638.39 753.55,-1698.39 1179.55,-1698.39 1179.55,-1638.39 753.55,-1638.39"/>
<text text-anchor="start" x="764.55" y="-1658.59" font-family="Helvetica,sans-Serif" font-size="32.00" fill="#29235c">amount &#160;&#160;&#160;</text>
<text text-anchor="start" x="1065.43" y="-1659.59" font-family="Helvetica,sans-Serif" font-style="italic" font-size="32.00" fill="#29235c">FLOAT</text>
<polygon fill="#e7e2dd" stroke="transparent" points="753.55,-1578.39 753.55,-1638.39 1179.55,-1638.39 1179.55,-1578.39 753.55,-1578.39"/>
<polygon fill="none" stroke="#29235c" points="753.55,-1578.39 753.55,-1638.39 1179.55,-1638.39 1179.55,-1578.39 753.55,-1578.39"/>
<text text-anchor="start" x="764.22" y="-1598.59" font-family="Helvetica,sans-Serif" font-size="32.00" fill="#29235c">allocated_date &#160;&#160;&#160;</text>
<text text-anchor="start" x="1007.17" y="-1599.59" font-family="Helvetica,sans-Serif" font-style="italic" font-size="32.00" fill="#29235c">DATETIME</text>
<polygon fill="none" stroke="#29235c" stroke-width="2" points="752.55,-1577.39 752.55,-1879.39 1180.55,-1879.39 1180.55,-1577.39 752.55,-1577.39"/>
</g>
<!-- Project -->
<g id="Project" class="node">
<title>Project</title>
<ellipse fill="none" stroke="black" stroke-width="0" cx="1607.84" cy="-1618.39" rx="257.27" ry="214.92"/>
<polygon fill="#1d71b8" stroke="transparent" points="1427.84,-1708.39 1427.84,-1768.39 1787.84,-1768.39 1787.84,-1708.39 1427.84,-1708.39"/>
<polygon fill="none" stroke="#29235c" points="1427.84,-1708.39 1427.84,-1768.39 1787.84,-1768.39 1787.84,-1708.39 1427.84,-1708.39"/>
<text text-anchor="start" x="1495.8" y="-1729.59" font-family="Helvetica,sans-Serif" font-weight="bold" font-size="32.00" fill="#ffffff"> &#160;&#160;&#160;&#160;&#160;&#160;Project &#160;&#160;&#160;&#160;&#160;&#160;</text>
<polygon fill="#e7e2dd" stroke="transparent" points="1427.84,-1648.39 1427.84,-1708.39 1787.84,-1708.39 1787.84,-1648.39 1427.84,-1648.39"/>
<polygon fill="none" stroke="#29235c" points="1427.84,-1648.39 1427.84,-1708.39 1787.84,-1708.39 1787.84,-1648.39 1427.84,-1648.39"/>
<text text-anchor="start" x="1438.84" y="-1669.59" font-family="Helvetica,sans-Serif" font-weight="bold" font-size="32.00" fill="#29235c">id</text>
<text text-anchor="start" x="1463.73" y="-1669.59" font-family="Helvetica,sans-Serif" font-size="32.00" fill="#29235c"> &#160;&#160;&#160;</text>
<text text-anchor="start" x="1634.62" y="-1669.59" font-family="Helvetica,sans-Serif" font-style="italic" font-size="32.00" fill="#29235c">INTEGER</text>
<polygon fill="#e7e2dd" stroke="transparent" points="1427.84,-1588.39 1427.84,-1648.39 1787.84,-1648.39 1787.84,-1588.39 1427.84,-1588.39"/>
<polygon fill="none" stroke="#29235c" points="1427.84,-1588.39 1427.84,-1648.39 1787.84,-1648.39 1787.84,-1588.39 1427.84,-1588.39"/>
<text text-anchor="start" x="1438.84" y="-1608.59" font-family="Helvetica,sans-Serif" font-size="32.00" fill="#29235c">name &#160;&#160;&#160;</text>
<text text-anchor="start" x="1620.41" y="-1609.59" font-family="Helvetica,sans-Serif" font-style="italic" font-size="32.00" fill="#29235c">VARCHAR</text>
<polygon fill="#e7e2dd" stroke="transparent" points="1427.84,-1528.39 1427.84,-1588.39 1787.84,-1588.39 1787.84,-1528.39 1427.84,-1528.39"/>
<polygon fill="none" stroke="#29235c" points="1427.84,-1528.39 1427.84,-1588.39 1787.84,-1588.39 1787.84,-1528.39 1427.84,-1528.39"/>
<text text-anchor="start" x="1438.41" y="-1548.59" font-family="Helvetica,sans-Serif" font-size="32.00" fill="#29235c">start_date &#160;&#160;&#160;</text>
<text text-anchor="start" x="1615.45" y="-1549.59" font-family="Helvetica,sans-Serif" font-style="italic" font-size="32.00" fill="#29235c">DATETIME</text>
<polygon fill="#e7e2dd" stroke="transparent" points="1427.84,-1468.39 1427.84,-1528.39 1787.84,-1528.39 1787.84,-1468.39 1427.84,-1468.39"/>
<polygon fill="none" stroke="#29235c" points="1427.84,-1468.39 1427.84,-1528.39 1787.84,-1528.39 1787.84,-1468.39 1427.84,-1468.39"/>
<text text-anchor="start" x="1438.84" y="-1488.59" font-family="Helvetica,sans-Serif" font-size="32.00" fill="#29235c">end_date &#160;&#160;&#160;</text>
<text text-anchor="start" x="1615.07" y="-1489.59" font-family="Helvetica,sans-Serif" font-style="italic" font-size="32.00" fill="#29235c">DATETIME</text>
<polygon fill="none" stroke="#29235c" stroke-width="2" points="1426.84,-1467.39 1426.84,-1769.39 1788.84,-1769.39 1788.84,-1467.39 1426.84,-1467.39"/>
</g>
<!-- Budget&#45;&gt;Project -->
<!-- Budget&#45;&gt;Project -->
<g id="edge2" class="edge">
<title>Budget:e&#45;&gt;Project:w</title>
<path fill="none" stroke="#29235c" stroke-width="3" d="M1180.55,-1728.39C1288.75,-1728.39 1313.63,-1681.46 1416.62,-1678.53"/>
<polygon fill="#29235c" stroke="#29235c" stroke-width="3" points="1416.89,-1682.03 1426.84,-1678.39 1416.79,-1675.03 1416.89,-1682.03"/>
<text text-anchor="middle" x="1433.06" y="-1687.99" font-family="Helvetica,sans-Serif" font-size="32.00" fill="#29235c">*</text>
<text text-anchor="middle" x="1171.66" y="-1737.99" font-family="Helvetica,sans-Serif" font-size="32.00" fill="#29235c">1</text>
</g>
<!-- Contract -->
<g id="Contract" class="node">
<title>Contract</title>
<ellipse fill="none" stroke="black" stroke-width="0" cx="966.55" cy="-2218.39" rx="274.21" ry="257.27"/>
<polygon fill="#1d71b8" stroke="transparent" points="774.55,-2338.39 774.55,-2398.39 1158.55,-2398.39 1158.55,-2338.39 774.55,-2338.39"/>
<polygon fill="none" stroke="#29235c" points="774.55,-2338.39 774.55,-2398.39 1158.55,-2398.39 1158.55,-2338.39 774.55,-2338.39"/>
<text text-anchor="start" x="843.85" y="-2359.59" font-family="Helvetica,sans-Serif" font-weight="bold" font-size="32.00" fill="#ffffff"> &#160;&#160;&#160;&#160;&#160;&#160;Contract &#160;&#160;&#160;&#160;&#160;&#160;</text>
<polygon fill="#e7e2dd" stroke="transparent" points="774.55,-2278.39 774.55,-2338.39 1158.55,-2338.39 1158.55,-2278.39 774.55,-2278.39"/>
<polygon fill="none" stroke="#29235c" points="774.55,-2278.39 774.55,-2338.39 1158.55,-2338.39 1158.55,-2278.39 774.55,-2278.39"/>
<text text-anchor="start" x="785.55" y="-2299.59" font-family="Helvetica,sans-Serif" font-weight="bold" font-size="32.00" fill="#29235c">id</text>
<text text-anchor="start" x="810.44" y="-2299.59" font-family="Helvetica,sans-Serif" font-size="32.00" fill="#29235c"> &#160;&#160;&#160;</text>
<text text-anchor="start" x="1005.33" y="-2299.59" font-family="Helvetica,sans-Serif" font-style="italic" font-size="32.00" fill="#29235c">INTEGER</text>
<polygon fill="#e7e2dd" stroke="transparent" points="774.55,-2218.39 774.55,-2278.39 1158.55,-2278.39 1158.55,-2218.39 774.55,-2218.39"/>
<polygon fill="none" stroke="#29235c" points="774.55,-2218.39 774.55,-2278.39 1158.55,-2278.39 1158.55,-2218.39 774.55,-2218.39"/>
<text text-anchor="start" x="785.55" y="-2238.59" font-family="Helvetica,sans-Serif" font-size="32.00" fill="#29235c">project_id &#160;&#160;&#160;</text>
<text text-anchor="start" x="1005.33" y="-2239.59" font-family="Helvetica,sans-Serif" font-style="italic" font-size="32.00" fill="#29235c">INTEGER</text>
<polygon fill="#e7e2dd" stroke="transparent" points="774.55,-2158.39 774.55,-2218.39 1158.55,-2218.39 1158.55,-2158.39 774.55,-2158.39"/>
<polygon fill="none" stroke="#29235c" points="774.55,-2158.39 774.55,-2218.39 1158.55,-2218.39 1158.55,-2158.39 774.55,-2158.39"/>
<text text-anchor="start" x="785.3" y="-2178.59" font-family="Helvetica,sans-Serif" font-size="32.00" fill="#29235c">contractor_id &#160;&#160;&#160;</text>
<text text-anchor="start" x="1005.44" y="-2179.59" font-family="Helvetica,sans-Serif" font-style="italic" font-size="32.00" fill="#29235c">INTEGER</text>
<polygon fill="#e7e2dd" stroke="transparent" points="774.55,-2098.39 774.55,-2158.39 1158.55,-2158.39 1158.55,-2098.39 774.55,-2098.39"/>
<polygon fill="none" stroke="#29235c" points="774.55,-2098.39 774.55,-2158.39 1158.55,-2158.39 1158.55,-2098.39 774.55,-2098.39"/>
<text text-anchor="start" x="785.55" y="-2118.59" font-family="Helvetica,sans-Serif" font-size="32.00" fill="#29235c">start_date &#160;&#160;&#160;</text>
<text text-anchor="start" x="985.79" y="-2119.59" font-family="Helvetica,sans-Serif" font-style="italic" font-size="32.00" fill="#29235c">DATETIME</text>
<polygon fill="#e7e2dd" stroke="transparent" points="774.55,-2038.39 774.55,-2098.39 1158.55,-2098.39 1158.55,-2038.39 774.55,-2038.39"/>
<polygon fill="none" stroke="#29235c" points="774.55,-2038.39 774.55,-2098.39 1158.55,-2098.39 1158.55,-2038.39 774.55,-2038.39"/>
<text text-anchor="start" x="785.55" y="-2058.59" font-family="Helvetica,sans-Serif" font-size="32.00" fill="#29235c">end_date &#160;&#160;&#160;</text>
<text text-anchor="start" x="985.79" y="-2059.59" font-family="Helvetica,sans-Serif" font-style="italic" font-size="32.00" fill="#29235c">DATETIME</text>
<polygon fill="none" stroke="#29235c" stroke-width="2" points="773.55,-2037.39 773.55,-2399.39 1159.55,-2399.39 1159.55,-2037.39 773.55,-2037.39"/>
</g>
<!-- Contract&#45;&gt;Project -->
<!-- Contract&#45;&gt;Project -->
<g id="edge6" class="edge">
<title>Contract:e&#45;&gt;Project:w</title>
<path fill="none" stroke="#29235c" stroke-width="3" d="M1159.55,-2248.39C1226.36,-2248.39 1345.56,-1728.45 1417.07,-1681.73"/>
<polygon fill="#29235c" stroke="#29235c" stroke-width="3" points="1418.51,-1684.94 1426.84,-1678.39 1416.24,-1678.32 1418.51,-1684.94"/>
<text text-anchor="middle" x="1433.06" y="-1649.59" font-family="Helvetica,sans-Serif" font-size="32.00" fill="#29235c">*</text>
<text text-anchor="middle" x="1150.66" y="-2257.99" font-family="Helvetica,sans-Serif" font-size="32.00" fill="#29235c">1</text>
</g>
<!-- Contractor -->
<g id="Contractor" class="node">
<title>Contractor</title>
<ellipse fill="none" stroke="black" stroke-width="0" cx="1607.84" cy="-2278.39" rx="275.54" ry="172.57"/>
<polygon fill="#1d71b8" stroke="transparent" points="1414.84,-2338.39 1414.84,-2398.39 1800.84,-2398.39 1800.84,-2338.39 1414.84,-2338.39"/>
<polygon fill="none" stroke="#29235c" points="1414.84,-2338.39 1414.84,-2398.39 1800.84,-2398.39 1800.84,-2338.39 1414.84,-2338.39"/>
<text text-anchor="start" x="1470.91" y="-2359.59" font-family="Helvetica,sans-Serif" font-weight="bold" font-size="32.00" fill="#ffffff"> &#160;&#160;&#160;&#160;&#160;&#160;Contractor &#160;&#160;&#160;&#160;&#160;&#160;</text>
<polygon fill="#e7e2dd" stroke="transparent" points="1414.84,-2278.39 1414.84,-2338.39 1800.84,-2338.39 1800.84,-2278.39 1414.84,-2278.39"/>
<polygon fill="none" stroke="#29235c" points="1414.84,-2278.39 1414.84,-2338.39 1800.84,-2338.39 1800.84,-2278.39 1414.84,-2278.39"/>
<text text-anchor="start" x="1425.84" y="-2299.59" font-family="Helvetica,sans-Serif" font-weight="bold" font-size="32.00" fill="#29235c">id</text>
<text text-anchor="start" x="1450.73" y="-2299.59" font-family="Helvetica,sans-Serif" font-size="32.00" fill="#29235c"> &#160;&#160;&#160;</text>
<text text-anchor="start" x="1647.62" y="-2299.59" font-family="Helvetica,sans-Serif" font-style="italic" font-size="32.00" fill="#29235c">INTEGER</text>
<polygon fill="#e7e2dd" stroke="transparent" points="1414.84,-2218.39 1414.84,-2278.39 1800.84,-2278.39 1800.84,-2218.39 1414.84,-2218.39"/>
<polygon fill="none" stroke="#29235c" points="1414.84,-2218.39 1414.84,-2278.39 1800.84,-2278.39 1800.84,-2218.39 1414.84,-2218.39"/>
<text text-anchor="start" x="1425.84" y="-2238.59" font-family="Helvetica,sans-Serif" font-size="32.00" fill="#29235c">name &#160;&#160;&#160;</text>
<text text-anchor="start" x="1633.41" y="-2239.59" font-family="Helvetica,sans-Serif" font-style="italic" font-size="32.00" fill="#29235c">VARCHAR</text>
<polygon fill="#e7e2dd" stroke="transparent" points="1414.84,-2158.39 1414.84,-2218.39 1800.84,-2218.39 1800.84,-2158.39 1414.84,-2158.39"/>
<polygon fill="none" stroke="#29235c" points="1414.84,-2158.39 1414.84,-2218.39 1800.84,-2218.39 1800.84,-2158.39 1414.84,-2158.39"/>
<text text-anchor="start" x="1425.79" y="-2178.59" font-family="Helvetica,sans-Serif" font-size="32.00" fill="#29235c">contact_info &#160;&#160;&#160;</text>
<text text-anchor="start" x="1633.62" y="-2179.59" font-family="Helvetica,sans-Serif" font-style="italic" font-size="32.00" fill="#29235c">VARCHAR</text>
<polygon fill="none" stroke="#29235c" stroke-width="2" points="1413.84,-2157.39 1413.84,-2399.39 1801.84,-2399.39 1801.84,-2157.39 1413.84,-2157.39"/>
</g>
<!-- Contract&#45;&gt;Contractor -->
<!-- Contract&#45;&gt;Contractor -->
<g id="edge4" class="edge">
<title>Contract:e&#45;&gt;Contractor:w</title>
<path fill="none" stroke="#29235c" stroke-width="3" d="M1159.55,-2188.39C1280.98,-2188.39 1288.53,-2301.69 1403.5,-2308.1"/>
<polygon fill="#29235c" stroke="#29235c" stroke-width="3" points="1403.74,-2311.61 1413.84,-2308.39 1403.94,-2304.61 1403.74,-2311.61"/>
<text text-anchor="middle" x="1420.06" y="-2317.99" font-family="Helvetica,sans-Serif" font-size="32.00" fill="#29235c">*</text>
<text text-anchor="middle" x="1150.66" y="-2197.99" font-family="Helvetica,sans-Serif" font-size="32.00" fill="#29235c">1</text>
</g>
<!-- Employee -->
<g id="Employee" class="node">
<title>Employee</title>
<ellipse fill="none" stroke="black" stroke-width="0" cx="1607.84" cy="-1213.39" rx="210.02" ry="172.57"/>
<polygon fill="#1d71b8" stroke="transparent" points="1461.84,-1273.39 1461.84,-1333.39 1754.84,-1333.39 1754.84,-1273.39 1461.84,-1273.39"/>
<polygon fill="none" stroke="#29235c" points="1461.84,-1273.39 1461.84,-1333.39 1754.84,-1333.39 1754.84,-1273.39 1461.84,-1273.39"/>
<text text-anchor="start" x="1474.96" y="-1294.59" font-family="Helvetica,sans-Serif" font-weight="bold" font-size="32.00" fill="#ffffff"> &#160;&#160;&#160;&#160;&#160;&#160;Employee &#160;&#160;&#160;&#160;&#160;&#160;</text>
<polygon fill="#e7e2dd" stroke="transparent" points="1461.84,-1213.39 1461.84,-1273.39 1754.84,-1273.39 1754.84,-1213.39 1461.84,-1213.39"/>
<polygon fill="none" stroke="#29235c" points="1461.84,-1213.39 1461.84,-1273.39 1754.84,-1273.39 1754.84,-1213.39 1461.84,-1213.39"/>
<text text-anchor="start" x="1472.84" y="-1234.59" font-family="Helvetica,sans-Serif" font-weight="bold" font-size="32.00" fill="#29235c">id</text>
<text text-anchor="start" x="1497.73" y="-1234.59" font-family="Helvetica,sans-Serif" font-size="32.00" fill="#29235c"> &#160;&#160;&#160;</text>
<text text-anchor="start" x="1601.62" y="-1234.59" font-family="Helvetica,sans-Serif" font-style="italic" font-size="32.00" fill="#29235c">INTEGER</text>
<polygon fill="#e7e2dd" stroke="transparent" points="1461.84,-1153.39 1461.84,-1213.39 1754.84,-1213.39 1754.84,-1153.39 1461.84,-1153.39"/>
<polygon fill="none" stroke="#29235c" points="1461.84,-1153.39 1461.84,-1213.39 1754.84,-1213.39 1754.84,-1153.39 1461.84,-1153.39"/>
<text text-anchor="start" x="1472.54" y="-1173.59" font-family="Helvetica,sans-Serif" font-size="32.00" fill="#29235c">name &#160;&#160;&#160;</text>
<text text-anchor="start" x="1587.62" y="-1174.59" font-family="Helvetica,sans-Serif" font-style="italic" font-size="32.00" fill="#29235c">VARCHAR</text>
<polygon fill="#e7e2dd" stroke="transparent" points="1461.84,-1093.39 1461.84,-1153.39 1754.84,-1153.39 1754.84,-1093.39 1461.84,-1093.39"/>
<polygon fill="none" stroke="#29235c" points="1461.84,-1093.39 1461.84,-1153.39 1754.84,-1153.39 1754.84,-1093.39 1461.84,-1093.39"/>
<text text-anchor="start" x="1472.84" y="-1113.59" font-family="Helvetica,sans-Serif" font-size="32.00" fill="#29235c">role &#160;&#160;&#160;</text>
<text text-anchor="start" x="1587.41" y="-1114.59" font-family="Helvetica,sans-Serif" font-style="italic" font-size="32.00" fill="#29235c">VARCHAR</text>
<polygon fill="none" stroke="#29235c" stroke-width="2" points="1460.34,-1092.39 1460.34,-1334.39 1755.34,-1334.39 1755.34,-1092.39 1460.34,-1092.39"/>
</g>
<!-- EmployeeAssignment -->
<g id="EmployeeAssignment" class="node">
<title>EmployeeAssignment</title>
<ellipse fill="none" stroke="black" stroke-width="0" cx="966.55" cy="-1280.39" rx="329.52" ry="214.92"/>
<polygon fill="#1d71b8" stroke="transparent" points="735.55,-1370.39 735.55,-1430.39 1197.55,-1430.39 1197.55,-1370.39 735.55,-1370.39"/>
<polygon fill="none" stroke="#29235c" points="735.55,-1370.39 735.55,-1430.39 1197.55,-1430.39 1197.55,-1370.39 735.55,-1370.39"/>
<text text-anchor="start" x="749.61" y="-1391.59" font-family="Helvetica,sans-Serif" font-weight="bold" font-size="32.00" fill="#ffffff"> &#160;&#160;&#160;&#160;&#160;&#160;EmployeeAssignment &#160;&#160;&#160;&#160;&#160;&#160;</text>
<polygon fill="#e7e2dd" stroke="transparent" points="735.55,-1310.39 735.55,-1370.39 1197.55,-1370.39 1197.55,-1310.39 735.55,-1310.39"/>
<polygon fill="none" stroke="#29235c" points="735.55,-1310.39 735.55,-1370.39 1197.55,-1370.39 1197.55,-1310.39 735.55,-1310.39"/>
<text text-anchor="start" x="746.55" y="-1331.59" font-family="Helvetica,sans-Serif" font-weight="bold" font-size="32.00" fill="#29235c">id</text>
<text text-anchor="start" x="771.44" y="-1331.59" font-family="Helvetica,sans-Serif" font-size="32.00" fill="#29235c"> &#160;&#160;&#160;</text>
<text text-anchor="start" x="1044.33" y="-1331.59" font-family="Helvetica,sans-Serif" font-style="italic" font-size="32.00" fill="#29235c">INTEGER</text>
<polygon fill="#e7e2dd" stroke="transparent" points="735.55,-1250.39 735.55,-1310.39 1197.55,-1310.39 1197.55,-1250.39 735.55,-1250.39"/>
<polygon fill="none" stroke="#29235c" points="735.55,-1250.39 735.55,-1310.39 1197.55,-1310.39 1197.55,-1250.39 735.55,-1250.39"/>
<text text-anchor="start" x="746.55" y="-1270.59" font-family="Helvetica,sans-Serif" font-size="32.00" fill="#29235c">project_id &#160;&#160;&#160;</text>
<text text-anchor="start" x="1044.33" y="-1271.59" font-family="Helvetica,sans-Serif" font-style="italic" font-size="32.00" fill="#29235c">INTEGER</text>
<polygon fill="#e7e2dd" stroke="transparent" points="735.55,-1190.39 735.55,-1250.39 1197.55,-1250.39 1197.55,-1190.39 735.55,-1190.39"/>
<polygon fill="none" stroke="#29235c" points="735.55,-1190.39 735.55,-1250.39 1197.55,-1250.39 1197.55,-1190.39 735.55,-1190.39"/>
<text text-anchor="start" x="746.55" y="-1210.59" font-family="Helvetica,sans-Serif" font-size="32.00" fill="#29235c">employee_id &#160;&#160;&#160;</text>
<text text-anchor="start" x="1044.33" y="-1211.59" font-family="Helvetica,sans-Serif" font-style="italic" font-size="32.00" fill="#29235c">INTEGER</text>
<polygon fill="#e7e2dd" stroke="transparent" points="735.55,-1130.39 735.55,-1190.39 1197.55,-1190.39 1197.55,-1130.39 735.55,-1130.39"/>
<polygon fill="none" stroke="#29235c" points="735.55,-1130.39 735.55,-1190.39 1197.55,-1190.39 1197.55,-1130.39 735.55,-1130.39"/>
<text text-anchor="start" x="746.45" y="-1150.59" font-family="Helvetica,sans-Serif" font-size="32.00" fill="#29235c">assignment_date &#160;&#160;&#160;</text>
<text text-anchor="start" x="1025.17" y="-1151.59" font-family="Helvetica,sans-Serif" font-style="italic" font-size="32.00" fill="#29235c">DATETIME</text>
<polygon fill="none" stroke="#29235c" stroke-width="2" points="734.55,-1129.39 734.55,-1431.39 1198.55,-1431.39 1198.55,-1129.39 734.55,-1129.39"/>
</g>
<!-- EmployeeAssignment&#45;&gt;Project -->
<!-- EmployeeAssignment&#45;&gt;Project -->
<g id="edge10" class="edge">
<title>EmployeeAssignment:e&#45;&gt;Project:w</title>
<path fill="none" stroke="#29235c" stroke-width="3" d="M1198.55,-1280.39C1398.99,-1280.39 1228.94,-1664.9 1416.71,-1678.04"/>
<polygon fill="#29235c" stroke="#29235c" stroke-width="3" points="1416.72,-1681.54 1426.84,-1678.39 1416.96,-1674.55 1416.72,-1681.54"/>
<text text-anchor="middle" x="1420.61" y="-1687.99" font-family="Helvetica,sans-Serif" font-size="32.00" fill="#29235c">*</text>
<text text-anchor="middle" x="1189.66" y="-1289.99" font-family="Helvetica,sans-Serif" font-size="32.00" fill="#29235c">1</text>
</g>
<!-- EmployeeAssignment&#45;&gt;Employee -->
<!-- EmployeeAssignment&#45;&gt;Employee -->
<g id="edge8" class="edge">
<title>EmployeeAssignment:e&#45;&gt;Employee:w</title>
<path fill="none" stroke="#29235c" stroke-width="3" d="M1198.55,-1220.39C1312.14,-1220.39 1342.09,-1242.06 1450.78,-1243.33"/>
<polygon fill="#29235c" stroke="#29235c" stroke-width="3" points="1450.82,-1246.83 1460.84,-1243.39 1450.86,-1239.83 1450.82,-1246.83"/>
<text text-anchor="middle" x="1467.06" y="-1252.99" font-family="Helvetica,sans-Serif" font-size="32.00" fill="#29235c">*</text>
<text text-anchor="middle" x="1189.66" y="-1229.99" font-family="Helvetica,sans-Serif" font-size="32.00" fill="#29235c">1</text>
</g>
<!-- Equipment -->
<g id="Equipment" class="node">
<title>Equipment</title>
<ellipse fill="none" stroke="black" stroke-width="0" cx="1607.84" cy="-850.39" rx="258.6" ry="172.57"/>
<polygon fill="#1d71b8" stroke="transparent" points="1426.84,-910.39 1426.84,-970.39 1788.84,-970.39 1788.84,-910.39 1426.84,-910.39"/>
<polygon fill="none" stroke="#29235c" points="1426.84,-910.39 1426.84,-970.39 1788.84,-970.39 1788.84,-910.39 1426.84,-910.39"/>
<text text-anchor="start" x="1469.12" y="-931.59" font-family="Helvetica,sans-Serif" font-weight="bold" font-size="32.00" fill="#ffffff"> &#160;&#160;&#160;&#160;&#160;&#160;Equipment &#160;&#160;&#160;&#160;&#160;&#160;</text>
<polygon fill="#e7e2dd" stroke="transparent" points="1426.84,-850.39 1426.84,-910.39 1788.84,-910.39 1788.84,-850.39 1426.84,-850.39"/>
<polygon fill="none" stroke="#29235c" points="1426.84,-850.39 1426.84,-910.39 1788.84,-910.39 1788.84,-850.39 1426.84,-850.39"/>
<text text-anchor="start" x="1437.84" y="-871.59" font-family="Helvetica,sans-Serif" font-weight="bold" font-size="32.00" fill="#29235c">id</text>
<text text-anchor="start" x="1462.73" y="-871.59" font-family="Helvetica,sans-Serif" font-size="32.00" fill="#29235c"> &#160;&#160;&#160;</text>
<text text-anchor="start" x="1635.62" y="-871.59" font-family="Helvetica,sans-Serif" font-style="italic" font-size="32.00" fill="#29235c">INTEGER</text>
<polygon fill="#e7e2dd" stroke="transparent" points="1426.84,-790.39 1426.84,-850.39 1788.84,-850.39 1788.84,-790.39 1426.84,-790.39"/>
<polygon fill="none" stroke="#29235c" points="1426.84,-790.39 1426.84,-850.39 1788.84,-850.39 1788.84,-790.39 1426.84,-790.39"/>
<text text-anchor="start" x="1437.84" y="-810.59" font-family="Helvetica,sans-Serif" font-size="32.00" fill="#29235c">name &#160;&#160;&#160;</text>
<text text-anchor="start" x="1621.41" y="-811.59" font-family="Helvetica,sans-Serif" font-style="italic" font-size="32.00" fill="#29235c">VARCHAR</text>
<polygon fill="#e7e2dd" stroke="transparent" points="1426.84,-730.39 1426.84,-790.39 1788.84,-790.39 1788.84,-730.39 1426.84,-730.39"/>
<polygon fill="none" stroke="#29235c" points="1426.84,-730.39 1426.84,-790.39 1788.84,-790.39 1788.84,-730.39 1426.84,-730.39"/>
<text text-anchor="start" x="1437.38" y="-750.59" font-family="Helvetica,sans-Serif" font-size="32.00" fill="#29235c">maintainer &#160;&#160;&#160;</text>
<text text-anchor="start" x="1621.62" y="-751.59" font-family="Helvetica,sans-Serif" font-style="italic" font-size="32.00" fill="#29235c">VARCHAR</text>
<polygon fill="none" stroke="#29235c" stroke-width="2" points="1425.84,-729.39 1425.84,-971.39 1789.84,-971.39 1789.84,-729.39 1425.84,-729.39"/>
</g>
<!-- EquipmentUsage -->
<g id="EquipmentUsage" class="node">
<title>EquipmentUsage</title>
<ellipse fill="none" stroke="black" stroke-width="0" cx="966.55" cy="-790.39" rx="279.11" ry="257.27"/>
<polygon fill="#1d71b8" stroke="transparent" points="771.55,-910.39 771.55,-970.39 1162.55,-970.39 1162.55,-910.39 771.55,-910.39"/>
<polygon fill="none" stroke="#29235c" points="771.55,-910.39 771.55,-970.39 1162.55,-970.39 1162.55,-910.39 771.55,-910.39"/>
<text text-anchor="start" x="782.1" y="-931.59" font-family="Helvetica,sans-Serif" font-weight="bold" font-size="32.00" fill="#ffffff"> &#160;&#160;&#160;&#160;&#160;&#160;EquipmentUsage &#160;&#160;&#160;&#160;&#160;&#160;</text>
<polygon fill="#e7e2dd" stroke="transparent" points="771.55,-850.39 771.55,-910.39 1162.55,-910.39 1162.55,-850.39 771.55,-850.39"/>
<polygon fill="none" stroke="#29235c" points="771.55,-850.39 771.55,-910.39 1162.55,-910.39 1162.55,-850.39 771.55,-850.39"/>
<text text-anchor="start" x="782.55" y="-871.59" font-family="Helvetica,sans-Serif" font-weight="bold" font-size="32.00" fill="#29235c">id</text>
<text text-anchor="start" x="807.44" y="-871.59" font-family="Helvetica,sans-Serif" font-size="32.00" fill="#29235c"> &#160;&#160;&#160;</text>
<text text-anchor="start" x="1009.33" y="-871.59" font-family="Helvetica,sans-Serif" font-style="italic" font-size="32.00" fill="#29235c">INTEGER</text>
<polygon fill="#e7e2dd" stroke="transparent" points="771.55,-790.39 771.55,-850.39 1162.55,-850.39 1162.55,-790.39 771.55,-790.39"/>
<polygon fill="none" stroke="#29235c" points="771.55,-790.39 771.55,-850.39 1162.55,-850.39 1162.55,-790.39 771.55,-790.39"/>
<text text-anchor="start" x="782.55" y="-810.59" font-family="Helvetica,sans-Serif" font-size="32.00" fill="#29235c">project_id &#160;&#160;&#160;</text>
<text text-anchor="start" x="1009.33" y="-811.59" font-family="Helvetica,sans-Serif" font-style="italic" font-size="32.00" fill="#29235c">INTEGER</text>
<polygon fill="#e7e2dd" stroke="transparent" points="771.55,-730.39 771.55,-790.39 1162.55,-790.39 1162.55,-730.39 771.55,-730.39"/>
<polygon fill="none" stroke="#29235c" points="771.55,-730.39 771.55,-790.39 1162.55,-790.39 1162.55,-730.39 771.55,-730.39"/>
<text text-anchor="start" x="782.24" y="-750.59" font-family="Helvetica,sans-Serif" font-size="32.00" fill="#29235c">equipment_id &#160;&#160;&#160;</text>
<text text-anchor="start" x="1009.44" y="-751.59" font-family="Helvetica,sans-Serif" font-style="italic" font-size="32.00" fill="#29235c">INTEGER</text>
<polygon fill="#e7e2dd" stroke="transparent" points="771.55,-670.39 771.55,-730.39 1162.55,-730.39 1162.55,-670.39 771.55,-670.39"/>
<polygon fill="none" stroke="#29235c" points="771.55,-670.39 771.55,-730.39 1162.55,-730.39 1162.55,-670.39 771.55,-670.39"/>
<text text-anchor="start" x="782.55" y="-690.59" font-family="Helvetica,sans-Serif" font-size="32.00" fill="#29235c">usage_hours &#160;&#160;&#160;</text>
<text text-anchor="start" x="1048.43" y="-691.59" font-family="Helvetica,sans-Serif" font-style="italic" font-size="32.00" fill="#29235c">FLOAT</text>
<polygon fill="#e7e2dd" stroke="transparent" points="771.55,-610.39 771.55,-670.39 1162.55,-670.39 1162.55,-610.39 771.55,-610.39"/>
<polygon fill="none" stroke="#29235c" points="771.55,-610.39 771.55,-670.39 1162.55,-670.39 1162.55,-610.39 771.55,-610.39"/>
<text text-anchor="start" x="782.55" y="-630.59" font-family="Helvetica,sans-Serif" font-size="32.00" fill="#29235c">usage_date &#160;&#160;&#160;</text>
<text text-anchor="start" x="989.79" y="-631.59" font-family="Helvetica,sans-Serif" font-style="italic" font-size="32.00" fill="#29235c">DATETIME</text>
<polygon fill="none" stroke="#29235c" stroke-width="2" points="770.05,-609.39 770.05,-971.39 1163.05,-971.39 1163.05,-609.39 770.05,-609.39"/>
</g>
<!-- EquipmentUsage&#45;&gt;Project -->
<!-- EquipmentUsage&#45;&gt;Project -->
<g id="edge14" class="edge">
<title>EquipmentUsage:e&#45;&gt;Project:w</title>
<path fill="none" stroke="#29235c" stroke-width="3" d="M1163.55,-820.39C1283.84,-820.39 1259.52,-941.78 1296.06,-1056.39 1337.93,-1187.67 1288.14,-1654.8 1416.83,-1677.53"/>
<polygon fill="#29235c" stroke="#29235c" stroke-width="3" points="1416.57,-1681.02 1426.84,-1678.39 1417.17,-1674.04 1416.57,-1681.02"/>
<text text-anchor="middle" x="1420.61" y="-1649.59" font-family="Helvetica,sans-Serif" font-size="32.00" fill="#29235c">*</text>
<text text-anchor="middle" x="1154.66" y="-829.99" font-family="Helvetica,sans-Serif" font-size="32.00" fill="#29235c">1</text>
</g>
<!-- EquipmentUsage&#45;&gt;Equipment -->
<!-- EquipmentUsage&#45;&gt;Equipment -->
<g id="edge12" class="edge">
<title>EquipmentUsage:e&#45;&gt;Equipment:w</title>
<path fill="none" stroke="#29235c" stroke-width="3" d="M1163.55,-760.39C1288.24,-760.39 1297.23,-873.91 1415.59,-880.12"/>
<polygon fill="#29235c" stroke="#29235c" stroke-width="3" points="1415.75,-883.63 1425.84,-880.39 1415.93,-876.63 1415.75,-883.63"/>
<text text-anchor="middle" x="1432.06" y="-889.99" font-family="Helvetica,sans-Serif" font-size="32.00" fill="#29235c">*</text>
<text text-anchor="middle" x="1154.66" y="-769.99" font-family="Helvetica,sans-Serif" font-size="32.00" fill="#29235c">1</text>
</g>
<!-- Expense -->
<g id="Expense" class="node">
<title>Expense</title>
<ellipse fill="none" stroke="black" stroke-width="0" cx="300.52" cy="-1698.39" rx="299.21" ry="257.27"/>
<polygon fill="#1d71b8" stroke="transparent" points="91.52,-1818.39 91.52,-1878.39 510.52,-1878.39 510.52,-1818.39 91.52,-1818.39"/>
<polygon fill="none" stroke="#29235c" points="91.52,-1818.39 91.52,-1878.39 510.52,-1878.39 510.52,-1818.39 91.52,-1818.39"/>
<text text-anchor="start" x="176.52" y="-1839.59" font-family="Helvetica,sans-Serif" font-weight="bold" font-size="32.00" fill="#ffffff"> &#160;&#160;&#160;&#160;&#160;&#160;Expense &#160;&#160;&#160;&#160;&#160;&#160;</text>
<polygon fill="#e7e2dd" stroke="transparent" points="91.52,-1758.39 91.52,-1818.39 510.52,-1818.39 510.52,-1758.39 91.52,-1758.39"/>
<polygon fill="none" stroke="#29235c" points="91.52,-1758.39 91.52,-1818.39 510.52,-1818.39 510.52,-1758.39 91.52,-1758.39"/>
<text text-anchor="start" x="102.52" y="-1779.59" font-family="Helvetica,sans-Serif" font-weight="bold" font-size="32.00" fill="#29235c">id</text>
<text text-anchor="start" x="127.41" y="-1779.59" font-family="Helvetica,sans-Serif" font-size="32.00" fill="#29235c"> &#160;&#160;&#160;</text>
<text text-anchor="start" x="357.3" y="-1779.59" font-family="Helvetica,sans-Serif" font-style="italic" font-size="32.00" fill="#29235c">INTEGER</text>
<polygon fill="#e7e2dd" stroke="transparent" points="91.52,-1698.39 91.52,-1758.39 510.52,-1758.39 510.52,-1698.39 91.52,-1698.39"/>
<polygon fill="none" stroke="#29235c" points="91.52,-1698.39 91.52,-1758.39 510.52,-1758.39 510.52,-1698.39 91.52,-1698.39"/>
<text text-anchor="start" x="102.52" y="-1718.59" font-family="Helvetica,sans-Serif" font-size="32.00" fill="#29235c">budget_id &#160;&#160;&#160;</text>
<text text-anchor="start" x="357.3" y="-1719.59" font-family="Helvetica,sans-Serif" font-style="italic" font-size="32.00" fill="#29235c">INTEGER</text>
<polygon fill="#e7e2dd" stroke="transparent" points="91.52,-1638.39 91.52,-1698.39 510.52,-1698.39 510.52,-1638.39 91.52,-1638.39"/>
<polygon fill="none" stroke="#29235c" points="91.52,-1638.39 91.52,-1698.39 510.52,-1698.39 510.52,-1638.39 91.52,-1638.39"/>
<text text-anchor="start" x="102.52" y="-1658.59" font-family="Helvetica,sans-Serif" font-size="32.00" fill="#29235c">description &#160;&#160;&#160;</text>
<text text-anchor="start" x="343.09" y="-1659.59" font-family="Helvetica,sans-Serif" font-style="italic" font-size="32.00" fill="#29235c">VARCHAR</text>
<polygon fill="#e7e2dd" stroke="transparent" points="91.52,-1578.39 91.52,-1638.39 510.52,-1638.39 510.52,-1578.39 91.52,-1578.39"/>
<polygon fill="none" stroke="#29235c" points="91.52,-1578.39 91.52,-1638.39 510.52,-1638.39 510.52,-1578.39 91.52,-1578.39"/>
<text text-anchor="start" x="102.52" y="-1598.59" font-family="Helvetica,sans-Serif" font-size="32.00" fill="#29235c">amount &#160;&#160;&#160;</text>
<text text-anchor="start" x="396.4" y="-1599.59" font-family="Helvetica,sans-Serif" font-style="italic" font-size="32.00" fill="#29235c">FLOAT</text>
<polygon fill="#e7e2dd" stroke="transparent" points="91.52,-1518.39 91.52,-1578.39 510.52,-1578.39 510.52,-1518.39 91.52,-1518.39"/>
<polygon fill="none" stroke="#29235c" points="91.52,-1518.39 91.52,-1578.39 510.52,-1578.39 510.52,-1518.39 91.52,-1518.39"/>
<text text-anchor="start" x="102.24" y="-1538.59" font-family="Helvetica,sans-Serif" font-size="32.00" fill="#29235c">expense_date &#160;&#160;&#160;</text>
<text text-anchor="start" x="338.14" y="-1539.59" font-family="Helvetica,sans-Serif" font-style="italic" font-size="32.00" fill="#29235c">DATETIME</text>
<polygon fill="none" stroke="#29235c" stroke-width="2" points="90.02,-1517.39 90.02,-1879.39 511.02,-1879.39 511.02,-1517.39 90.02,-1517.39"/>
</g>
<!-- Expense&#45;&gt;Budget -->
<!-- Expense&#45;&gt;Budget -->
<g id="edge16" class="edge">
<title>Expense:e&#45;&gt;Budget:w</title>
<path fill="none" stroke="#29235c" stroke-width="3" d="M511.52,-1728.39C618.47,-1728.39 640.8,-1784.7 742.46,-1788.21"/>
<polygon fill="#29235c" stroke="#29235c" stroke-width="3" points="742.49,-1791.72 752.55,-1788.39 742.61,-1784.72 742.49,-1791.72"/>
<text text-anchor="middle" x="746.33" y="-1797.99" font-family="Helvetica,sans-Serif" font-size="32.00" fill="#29235c">*</text>
<text text-anchor="middle" x="502.63" y="-1737.99" font-family="Helvetica,sans-Serif" font-size="32.00" fill="#29235c">1</text>
</g>
<!-- Payment -->
<g id="Payment" class="node">
<title>Payment</title>
<ellipse fill="none" stroke="black" stroke-width="0" cx="300.52" cy="-2248.39" rx="300.54" ry="214.92"/>
<polygon fill="#1d71b8" stroke="transparent" points="90.52,-2338.39 90.52,-2398.39 511.52,-2398.39 511.52,-2338.39 90.52,-2338.39"/>
<polygon fill="none" stroke="#29235c" points="90.52,-2338.39 90.52,-2398.39 511.52,-2398.39 511.52,-2338.39 90.52,-2338.39"/>
<text text-anchor="start" x="175.64" y="-2359.59" font-family="Helvetica,sans-Serif" font-weight="bold" font-size="32.00" fill="#ffffff"> &#160;&#160;&#160;&#160;&#160;&#160;Payment &#160;&#160;&#160;&#160;&#160;&#160;</text>
<polygon fill="#e7e2dd" stroke="transparent" points="90.52,-2278.39 90.52,-2338.39 511.52,-2338.39 511.52,-2278.39 90.52,-2278.39"/>
<polygon fill="none" stroke="#29235c" points="90.52,-2278.39 90.52,-2338.39 511.52,-2338.39 511.52,-2278.39 90.52,-2278.39"/>
<text text-anchor="start" x="101.52" y="-2299.59" font-family="Helvetica,sans-Serif" font-weight="bold" font-size="32.00" fill="#29235c">id</text>
<text text-anchor="start" x="126.41" y="-2299.59" font-family="Helvetica,sans-Serif" font-size="32.00" fill="#29235c"> &#160;&#160;&#160;</text>
<text text-anchor="start" x="358.3" y="-2299.59" font-family="Helvetica,sans-Serif" font-style="italic" font-size="32.00" fill="#29235c">INTEGER</text>
<polygon fill="#e7e2dd" stroke="transparent" points="90.52,-2218.39 90.52,-2278.39 511.52,-2278.39 511.52,-2218.39 90.52,-2218.39"/>
<polygon fill="none" stroke="#29235c" points="90.52,-2218.39 90.52,-2278.39 511.52,-2278.39 511.52,-2218.39 90.52,-2218.39"/>
<text text-anchor="start" x="101.52" y="-2238.59" font-family="Helvetica,sans-Serif" font-size="32.00" fill="#29235c">contract_id &#160;&#160;&#160;</text>
<text text-anchor="start" x="358.3" y="-2239.59" font-family="Helvetica,sans-Serif" font-style="italic" font-size="32.00" fill="#29235c">INTEGER</text>
<polygon fill="#e7e2dd" stroke="transparent" points="90.52,-2158.39 90.52,-2218.39 511.52,-2218.39 511.52,-2158.39 90.52,-2158.39"/>
<polygon fill="none" stroke="#29235c" points="90.52,-2158.39 90.52,-2218.39 511.52,-2218.39 511.52,-2158.39 90.52,-2158.39"/>
<text text-anchor="start" x="101.52" y="-2178.59" font-family="Helvetica,sans-Serif" font-size="32.00" fill="#29235c">amount &#160;&#160;&#160;</text>
<text text-anchor="start" x="397.4" y="-2179.59" font-family="Helvetica,sans-Serif" font-style="italic" font-size="32.00" fill="#29235c">FLOAT</text>
<polygon fill="#e7e2dd" stroke="transparent" points="90.52,-2098.39 90.52,-2158.39 511.52,-2158.39 511.52,-2098.39 90.52,-2098.39"/>
<polygon fill="none" stroke="#29235c" points="90.52,-2098.39 90.52,-2158.39 511.52,-2158.39 511.52,-2098.39 90.52,-2098.39"/>
<text text-anchor="start" x="101.36" y="-2118.59" font-family="Helvetica,sans-Serif" font-size="32.00" fill="#29235c">payment_date &#160;&#160;&#160;</text>
<text text-anchor="start" x="339.14" y="-2119.59" font-family="Helvetica,sans-Serif" font-style="italic" font-size="32.00" fill="#29235c">DATETIME</text>
<polygon fill="none" stroke="#29235c" stroke-width="2" points="89.02,-2097.39 89.02,-2399.39 512.02,-2399.39 512.02,-2097.39 89.02,-2097.39"/>
</g>
<!-- Payment&#45;&gt;Contract -->
<!-- Payment&#45;&gt;Contract -->
<g id="edge18" class="edge">
<title>Payment:e&#45;&gt;Contract:w</title>
<path fill="none" stroke="#29235c" stroke-width="3" d="M512.52,-2248.39C628.07,-2248.39 653.09,-2304.92 763.33,-2308.24"/>
<polygon fill="#29235c" stroke="#29235c" stroke-width="3" points="763.5,-2311.74 773.55,-2308.39 763.61,-2304.74 763.5,-2311.74"/>
<text text-anchor="middle" x="767.33" y="-2317.99" font-family="Helvetica,sans-Serif" font-size="32.00" fill="#29235c">*</text>
<text text-anchor="middle" x="503.63" y="-2257.99" font-family="Helvetica,sans-Serif" font-size="32.00" fill="#29235c">1</text>
</g>
<!-- Resource -->
<g id="Resource" class="node">
<title>Resource</title>
<ellipse fill="none" stroke="black" stroke-width="0" cx="1607.84" cy="-287.39" rx="251.96" ry="214.92"/>
<polygon fill="#1d71b8" stroke="transparent" points="1431.84,-377.39 1431.84,-437.39 1783.84,-437.39 1783.84,-377.39 1431.84,-377.39"/>
<polygon fill="none" stroke="#29235c" points="1431.84,-377.39 1431.84,-437.39 1783.84,-437.39 1783.84,-377.39 1431.84,-377.39"/>
<text text-anchor="start" x="1477.13" y="-398.59" font-family="Helvetica,sans-Serif" font-weight="bold" font-size="32.00" fill="#ffffff"> &#160;&#160;&#160;&#160;&#160;&#160;Resource &#160;&#160;&#160;&#160;&#160;&#160;</text>
<polygon fill="#e7e2dd" stroke="transparent" points="1431.84,-317.39 1431.84,-377.39 1783.84,-377.39 1783.84,-317.39 1431.84,-317.39"/>
<polygon fill="none" stroke="#29235c" points="1431.84,-317.39 1431.84,-377.39 1783.84,-377.39 1783.84,-317.39 1431.84,-317.39"/>
<text text-anchor="start" x="1442.84" y="-338.59" font-family="Helvetica,sans-Serif" font-weight="bold" font-size="32.00" fill="#29235c">id</text>
<text text-anchor="start" x="1467.73" y="-338.59" font-family="Helvetica,sans-Serif" font-size="32.00" fill="#29235c"> &#160;&#160;&#160;</text>
<text text-anchor="start" x="1630.62" y="-338.59" font-family="Helvetica,sans-Serif" font-style="italic" font-size="32.00" fill="#29235c">INTEGER</text>
<polygon fill="#e7e2dd" stroke="transparent" points="1431.84,-257.39 1431.84,-317.39 1783.84,-317.39 1783.84,-257.39 1431.84,-257.39"/>
<polygon fill="none" stroke="#29235c" points="1431.84,-257.39 1431.84,-317.39 1783.84,-317.39 1783.84,-257.39 1431.84,-257.39"/>
<text text-anchor="start" x="1442.84" y="-277.59" font-family="Helvetica,sans-Serif" font-size="32.00" fill="#29235c">name &#160;&#160;&#160;</text>
<text text-anchor="start" x="1616.41" y="-278.59" font-family="Helvetica,sans-Serif" font-style="italic" font-size="32.00" fill="#29235c">VARCHAR</text>
<polygon fill="#e7e2dd" stroke="transparent" points="1431.84,-197.39 1431.84,-257.39 1783.84,-257.39 1783.84,-197.39 1431.84,-197.39"/>
<polygon fill="none" stroke="#29235c" points="1431.84,-197.39 1431.84,-257.39 1783.84,-257.39 1783.84,-197.39 1431.84,-197.39"/>
<text text-anchor="start" x="1442.52" y="-217.59" font-family="Helvetica,sans-Serif" font-size="32.00" fill="#29235c">cost_per_unit &#160;&#160;&#160;</text>
<text text-anchor="start" x="1669.78" y="-218.59" font-family="Helvetica,sans-Serif" font-style="italic" font-size="32.00" fill="#29235c">FLOAT</text>
<polygon fill="#e7e2dd" stroke="transparent" points="1431.84,-137.39 1431.84,-197.39 1783.84,-197.39 1783.84,-137.39 1431.84,-137.39"/>
<polygon fill="none" stroke="#29235c" points="1431.84,-137.39 1431.84,-197.39 1783.84,-197.39 1783.84,-137.39 1431.84,-137.39"/>
<text text-anchor="start" x="1442.84" y="-157.59" font-family="Helvetica,sans-Serif" font-size="32.00" fill="#29235c">supplier &#160;&#160;&#160;</text>
<text text-anchor="start" x="1616.41" y="-158.59" font-family="Helvetica,sans-Serif" font-style="italic" font-size="32.00" fill="#29235c">VARCHAR</text>
<polygon fill="none" stroke="#29235c" stroke-width="2" points="1430.84,-136.39 1430.84,-438.39 1784.84,-438.39 1784.84,-136.39 1430.84,-136.39"/>
</g>
<!-- ResourceAllocation -->
<g id="ResourceAllocation" class="node">
<title>ResourceAllocation</title>
<ellipse fill="none" stroke="black" stroke-width="0" cx="966.55" cy="-257.39" rx="309.01" ry="257.27"/>
<polygon fill="#1d71b8" stroke="transparent" points="750.55,-377.39 750.55,-437.39 1183.55,-437.39 1183.55,-377.39 750.55,-377.39"/>
<polygon fill="none" stroke="#29235c" points="750.55,-377.39 750.55,-437.39 1183.55,-437.39 1183.55,-377.39 750.55,-377.39"/>
<text text-anchor="start" x="767" y="-398.59" font-family="Helvetica,sans-Serif" font-weight="bold" font-size="32.00" fill="#ffffff"> &#160;&#160;&#160;&#160;&#160;&#160;ResourceAllocation &#160;&#160;&#160;&#160;&#160;&#160;</text>
<polygon fill="#e7e2dd" stroke="transparent" points="750.55,-317.39 750.55,-377.39 1183.55,-377.39 1183.55,-317.39 750.55,-317.39"/>
<polygon fill="none" stroke="#29235c" points="750.55,-317.39 750.55,-377.39 1183.55,-377.39 1183.55,-317.39 750.55,-317.39"/>
<text text-anchor="start" x="761.55" y="-338.59" font-family="Helvetica,sans-Serif" font-weight="bold" font-size="32.00" fill="#29235c">id</text>
<text text-anchor="start" x="786.44" y="-338.59" font-family="Helvetica,sans-Serif" font-size="32.00" fill="#29235c"> &#160;&#160;&#160;</text>
<text text-anchor="start" x="1030.33" y="-338.59" font-family="Helvetica,sans-Serif" font-style="italic" font-size="32.00" fill="#29235c">INTEGER</text>
<polygon fill="#e7e2dd" stroke="transparent" points="750.55,-257.39 750.55,-317.39 1183.55,-317.39 1183.55,-257.39 750.55,-257.39"/>
<polygon fill="none" stroke="#29235c" points="750.55,-257.39 750.55,-317.39 1183.55,-317.39 1183.55,-257.39 750.55,-257.39"/>
<text text-anchor="start" x="761.55" y="-277.59" font-family="Helvetica,sans-Serif" font-size="32.00" fill="#29235c">project_id &#160;&#160;&#160;</text>
<text text-anchor="start" x="1030.33" y="-278.59" font-family="Helvetica,sans-Serif" font-style="italic" font-size="32.00" fill="#29235c">INTEGER</text>
<polygon fill="#e7e2dd" stroke="transparent" points="750.55,-197.39 750.55,-257.39 1183.55,-257.39 1183.55,-197.39 750.55,-197.39"/>
<polygon fill="none" stroke="#29235c" points="750.55,-197.39 750.55,-257.39 1183.55,-257.39 1183.55,-197.39 750.55,-197.39"/>
<text text-anchor="start" x="761.55" y="-217.59" font-family="Helvetica,sans-Serif" font-size="32.00" fill="#29235c">resource_id &#160;&#160;&#160;</text>
<text text-anchor="start" x="1030.33" y="-218.59" font-family="Helvetica,sans-Serif" font-style="italic" font-size="32.00" fill="#29235c">INTEGER</text>
<polygon fill="#e7e2dd" stroke="transparent" points="750.55,-137.39 750.55,-197.39 1183.55,-197.39 1183.55,-137.39 750.55,-137.39"/>
<polygon fill="none" stroke="#29235c" points="750.55,-137.39 750.55,-197.39 1183.55,-197.39 1183.55,-137.39 750.55,-137.39"/>
<text text-anchor="start" x="761.55" y="-157.59" font-family="Helvetica,sans-Serif" font-size="32.00" fill="#29235c">quantity &#160;&#160;&#160;</text>
<text text-anchor="start" x="1069.43" y="-158.59" font-family="Helvetica,sans-Serif" font-style="italic" font-size="32.00" fill="#29235c">FLOAT</text>
<polygon fill="#e7e2dd" stroke="transparent" points="750.55,-77.39 750.55,-137.39 1183.55,-137.39 1183.55,-77.39 750.55,-77.39"/>
<polygon fill="none" stroke="#29235c" points="750.55,-77.39 750.55,-137.39 1183.55,-137.39 1183.55,-77.39 750.55,-77.39"/>
<text text-anchor="start" x="761.17" y="-97.59" font-family="Helvetica,sans-Serif" font-size="32.00" fill="#29235c">allocation_date &#160;&#160;&#160;</text>
<text text-anchor="start" x="1011.17" y="-98.59" font-family="Helvetica,sans-Serif" font-style="italic" font-size="32.00" fill="#29235c">DATETIME</text>
<polygon fill="none" stroke="#29235c" stroke-width="2" points="749.05,-76.39 749.05,-438.39 1184.05,-438.39 1184.05,-76.39 749.05,-76.39"/>
</g>
<!-- ResourceAllocation&#45;&gt;Project -->
<!-- ResourceAllocation&#45;&gt;Project -->
<g id="edge20" class="edge">
<title>ResourceAllocation:e&#45;&gt;Project:w</title>
<path fill="none" stroke="#29235c" stroke-width="3" d="M1184.55,-287.39C1300.96,-287.39 1268.33,-411.33 1296.06,-524.39 1388.37,-900.67 1261.85,-1014.36 1332.06,-1395.39 1355.47,-1522.39 1297.4,-1670.36 1416.74,-1678.07"/>
<polygon fill="#29235c" stroke="#29235c" stroke-width="3" points="1416.73,-1681.57 1426.84,-1678.39 1416.95,-1674.58 1416.73,-1681.57"/>
<text text-anchor="middle" x="1433.06" y="-1687.99" font-family="Helvetica,sans-Serif" font-size="32.00" fill="#29235c">*</text>
<text text-anchor="middle" x="1175.66" y="-296.99" font-family="Helvetica,sans-Serif" font-size="32.00" fill="#29235c">1</text>
</g>
<!-- ResourceAllocation&#45;&gt;Resource -->
<!-- ResourceAllocation&#45;&gt;Resource -->
<g id="edge22" class="edge">
<title>ResourceAllocation:e&#45;&gt;Resource:w</title>
<path fill="none" stroke="#29235c" stroke-width="3" d="M1184.55,-227.39C1302.87,-227.39 1308.82,-340.69 1420.77,-347.1"/>
<polygon fill="#29235c" stroke="#29235c" stroke-width="3" points="1420.74,-350.6 1430.84,-347.39 1420.94,-343.61 1420.74,-350.6"/>
<text text-anchor="middle" x="1437.06" y="-356.99" font-family="Helvetica,sans-Serif" font-size="32.00" fill="#29235c">*</text>
<text text-anchor="middle" x="1175.66" y="-198.59" font-family="Helvetica,sans-Serif" font-size="32.00" fill="#29235c">1</text>
</g>
</g>
</svg>
